<svg xmlns="http://www.w3.org/2000/svg" width="118" height="18" viewBox="0 0 118 18" fill="none">
  <g stroke-linecap="round" stroke-linejoin="round">
    <path d="M4 9h28c8 0 9-6 17-6 5 0 7 3 10 6 3-3 5-6 10-6 8 0 9 6 17 6h28" stroke="#f6d27c" stroke-width="1.7"/>
    <path d="M28 9c5 0 7 5 12 5 4 0 6-3 4-6" stroke="#a96e2c" stroke-width="1.25"/>
    <path d="M90 9c-5 0-7 5-12 5-4 0-6-3-4-6" stroke="#a96e2c" stroke-width="1.25"/>
    <path d="M59 4l5 5-5 5-5-5 5-5Z" fill="#f6d27c"/>
    <circle cx="42" cy="9" r="1.6" fill="#f6d27c"/>
    <circle cx="76" cy="9" r="1.6" fill="#f6d27c"/>
  </g>
</svg>
