<svg xmlns="http://www.w3.org/2000/svg" width="420" height="80" viewBox="0 0 420 80" fill="none">
  <g stroke-linecap="round" stroke-linejoin="round">
    <path d="M18 12h384M18 68h384" stroke="#f0d080" stroke-width="1.8" opacity=".58"/>
    <path d="M44 20h62M44 60h62M314 20h62M314 60h62" stroke="#c9a84c" stroke-width="2.1" opacity=".84"/>
    <path d="M142 19h42M236 19h42M142 61h42M236 61h42" stroke="#f0d080" stroke-width="1.7" opacity=".44"/>

    <g stroke="#f0d080" stroke-width="2.7" opacity=".96">
      <path d="M18 40c10-18 29-24 44-13 11 8 9 25-4 28-10 2-17-5-15-13 1-7 8-10 14-7"/>
      <path d="M18 40c10 18 29 24 44 13 11-8 9-25-4-28-10-2-17 5-15 13 1 7 8 10 14 7"/>
      <path d="M66 40c-10-10-10-24 1-32 9-6 22-2 25 9 2 9-4 16-13 15-6-1-10-6-8-12"/>
      <path d="M66 40c-10 10-10 24 1 32 9 6 22 2 25-9 2-9-4-16-13-15-6 1-10 6-8 12"/>
      <path d="M52 40h48"/>
      <path d="M34 24c8 1 14 7 14 16s-6 15-14 16"/>
      <path d="M88 24c7 4 14 7 23 7M88 56c7-4 14-7 23-7"/>
    </g>

    <g stroke="#f0d080" stroke-width="2.7" opacity=".96" transform="translate(420 0) scale(-1 1)">
      <path d="M18 40c10-18 29-24 44-13 11 8 9 25-4 28-10 2-17-5-15-13 1-7 8-10 14-7"/>
      <path d="M18 40c10 18 29 24 44 13 11-8 9-25-4-28-10-2-17 5-15 13 1 7 8 10 14 7"/>
      <path d="M66 40c-10-10-10-24 1-32 9-6 22-2 25 9 2 9-4 16-13 15-6-1-10-6-8-12"/>
      <path d="M66 40c-10 10-10 24 1 32 9 6 22 2 25-9 2-9-4-16-13-15-6 1-10 6-8 12"/>
      <path d="M52 40h48"/>
      <path d="M34 24c8 1 14 7 14 16s-6 15-14 16"/>
      <path d="M88 24c7 4 14 7 23 7M88 56c7-4 14-7 23-7"/>
    </g>

    <g stroke="#f0d080" stroke-width="2" opacity=".78">
      <path d="M180 18c12 9 22 9 30 0 8 9 18 9 30 0"/>
      <path d="M180 62c12-9 22-9 30 0 8-9 18-9 30 0"/>
      <path d="M199 18c2-7 8-10 11-10s9 3 11 10"/>
      <path d="M199 62c2 7 8 10 11 10s9-3 11-10"/>
    </g>

    <g fill="#f0d080" opacity=".9">
      <circle cx="24" cy="18" r="2.2"/>
      <circle cx="24" cy="62" r="2.2"/>
      <circle cx="396" cy="18" r="2.2"/>
      <circle cx="396" cy="62" r="2.2"/>
      <circle cx="210" cy="18" r="1.9"/>
      <circle cx="210" cy="62" r="1.9"/>
    </g>
  </g>
</svg>
